<?xml version="1.0" encoding="UTF-8"?><svg id="Layer_1" xmlns="http://www.w3.org/2000/svg" viewBox="0 0 123.83 125.34"><defs><style>.cls-1{fill:#cf1184;}.cls-1,.cls-2{stroke-width:0px;}.cls-2{fill:#fff;}</style></defs><path className="cls-2" d="m25.25,47.86h0c8.18,0,14.81,6.63,14.81,14.81h0c0,8.18-6.63,14.81-14.81,14.81h0c-8.18,0-14.81-6.63-14.81-14.81h0c0-8.18,6.63-14.81,14.81-14.81Z"/><path className="cls-2" d="m25.25,88.06h0c8.18,0,14.81,6.63,14.81,14.81h0c0,8.18-6.63,14.81-14.81,14.81h0c-8.18,0-14.81-6.63-14.81-14.81h0c0-8.18,6.63-14.81,14.81-14.81Z"/><path className="cls-2" d="m25.25,7.67h0c8.18,0,14.81,6.63,14.81,14.81h0c0,8.18-6.63,14.81-14.81,14.81h0c-8.18,0-14.81-6.63-14.81-14.81h0c0-8.18,6.63-14.81,14.81-14.81Z"/><path className="cls-1" d="m61.92,47.86h0c8.18,0,14.81,6.63,14.81,14.81h0c0,8.18-6.63,14.81-14.81,14.81h0c-8.18,0-14.81-6.63-14.81-14.81h0c0-8.18,6.63-14.81,14.81-14.81Z"/><path className="cls-2" d="m61.92,88.06h0c8.18,0,14.81,6.63,14.81,14.81h0c0,8.18-6.63,14.81-14.81,14.81h0c-8.18,0-14.81-6.63-14.81-14.81h0c0-8.18,6.63-14.81,14.81-14.81Z"/><path className="cls-2" d="m61.92,7.67h0c8.18,0,14.81,6.63,14.81,14.81h0c0,8.18-6.63,14.81-14.81,14.81h0c-8.18,0-14.81-6.63-14.81-14.81h0c0-8.18,6.63-14.81,14.81-14.81Z"/><path className="cls-2" d="m98.58,47.86h0c8.18,0,14.81,6.63,14.81,14.81h0c0,8.18-6.63,14.81-14.81,14.81h0c-8.18,0-14.81-6.63-14.81-14.81h0c0-8.18,6.63-14.81,14.81-14.81Z"/><rect className="cls-2" x="83.77" y="88.06" width="29.62" height="29.62" rx="14.81" ry="14.81"/><path className="cls-2" d="m98.58,7.67h0c8.18,0,14.81,6.63,14.81,14.81h0c0,8.18-6.63,14.81-14.81,14.81h0c-8.18,0-14.81-6.63-14.81-14.81h0c0-8.18,6.63-14.81,14.81-14.81Z"/></svg>